Coordinates
version=1
nRows=16
nColumns=42
inDegrees=yes

Units are S.I. units (second, meters, Newtons, ...)
If the header above contains a line with 'inDegrees', this indicates whether rotational values are in degrees (yes) or radians (no).

endheader
time	pelvis_tilt	pelvis_list	pelvis_rotation	pelvis_tx	pelvis_ty	pelvis_tz	hip_flexion_r	hip_adduction_r	hip_rotation_r	knee_angle_r	knee_adduction_r	knee_angle_r_beta	ankle_angle_r	subtalar_angle_r	mtp_angle_r	hip_flexion_l	hip_adduction_l	hip_rotation_l	knee_angle_l	knee_adduction_l	knee_angle_l_beta	ankle_angle_l	subtalar_angle_l	mtp_angle_l	lumbar_extension	lumbar_bending	lumbar_rotation	arm_flex_r	arm_add_r	arm_rot_r	elbow_flex_r	pro_sup_r	wrist_flex_r	wrist_dev_r	arm_flex_l	arm_add_l	arm_rot_l	elbow_flex_l	pro_sup_l	wrist_flex_l	wrist_dev_l
      0.50000000	      7.19106702	      3.65597295	     -4.93904772	     -1.62092574	      0.97156643	      0.33988501	    -13.62500055	     -5.97858069	    -35.81161590	     27.54080014	    -10.55080809	      0.48067764	     22.40447309	     31.80906567	     -9.51663660	     16.50183322	      2.02183732	    -21.51600634	     12.77021740	     -5.16151693	      0.22288234	     -5.77538456	     20.11084594	     -9.51663660	    -21.98078121	     -8.75757894	      7.70973791	     26.32404878	    -18.09150557	     28.36400482	     41.98175601	     90.00000001	      0.00000000	      0.00000000	    -13.97772078	    -10.31516402	      4.20988426	     39.62208504	     90.00000001	      0.00000000	      0.00000000
      0.51000000	      6.94808234	      3.88946858	     -4.86762023	     -1.61210575	      0.97240571	      0.33789976	    -13.54819393	     -6.55882887	    -35.73737945	     28.20623181	    -10.58227884	      0.49229161	     20.97064786	     31.55820627	     -9.49419190	     16.12632426	      2.45423813	    -21.77979974	     12.45545175	     -5.15585719	      0.21738864	     -6.04193344	     20.27242283	     -9.49419190	    -21.68468219	     -9.04880158	      7.38114921	     25.70597837	    -17.97191164	     28.31603602	     41.94825084	     90.00000001	      0.00000000	      0.00000000	    -13.66454411	    -10.48330249	      4.30399888	     39.43342613	     90.00000001	      0.00000000	      0.00000000
      0.52000000	      6.78448552	      4.20303618	     -4.78093021	     -1.60324829	      0.97352962	      0.33576234	    -13.47997401	     -7.29163912	    -35.65601424	     29.03748603	    -10.58182958	      0.50679974	     19.46710081	     31.18490948	     -9.46946725	     15.67099728	      3.03693566	    -22.05378842	     12.11776528	     -5.24860568	      0.21149490	     -6.26260518	     20.54300144	     -9.46946725	    -21.49664529	     -9.42313814	      7.03916327	     25.00558348	    -17.84194711	     28.17616629	     41.88750515	     90.00000001	      0.00000000	      0.00000000	    -13.23981739	    -10.65996901	      4.43755429	     39.27639449	     90.00000001	      0.00000000	      0.00000000
      0.53000000	      6.65484170	      4.43317636	     -4.65039662	     -1.59440855	      0.97478963	      0.33361479	    -13.35436866	     -7.94234583	    -35.54865391	     30.06003633	    -10.60739979	      0.52464661	     17.89811793	     30.69445614	     -9.44721086	     15.18486664	      3.49427588	    -22.21660279	     11.86863402	     -5.23304259	      0.20714674	     -6.26559294	     20.79286277	     -9.44721086	    -21.37436051	     -9.69396663	      6.65090445	     24.32414836	    -17.71039828	     28.00974552	     41.83553901	     90.00000001	      0.00000000	      0.00000000	    -12.82274440	    -10.87502373	      4.55710147	     39.13488591	     90.00000001	      0.00000000	      0.00000000
      0.54000000	      6.52875070	      4.76473497	     -4.51226514	     -1.58550938	      0.97617034	      0.33134137	    -13.14216535	     -8.74151795	    -35.45628039	     31.21704829	    -10.63863637	      0.54484028	     16.03879297	     29.90040758	     -9.41898785	     14.69991670	      4.13128955	    -22.33500931	     11.59355324	     -5.33392709	      0.20234568	     -6.16608752	     21.09806152	     -9.41898785	    -21.25320982	    -10.06138123	      6.28965821	     23.54466890	    -17.59646237	     27.74341528	     41.75652579	     90.00000001	      0.00000000	      0.00000000	    -12.32441574	    -11.12433536	      4.72638577	     38.97802224	     90.00000001	      0.00000000	      0.00000000
      0.55000000	      6.44844656	      5.05388132	     -4.35634545	     -1.57668353	      0.97772451	      0.32907697	    -12.89078879	     -9.48538260	    -35.01413268	     32.59564030	    -10.53617850	      0.56890124	     14.20241044	     28.24125788	     -9.32883222	     14.14901896	      4.72542232	    -22.35986519	     11.31248243	     -5.40198673	      0.19744007	     -6.05033602	     21.42435991	     -9.32883222	    -21.21871100	    -10.38970414	      5.94857956	     22.70406779	    -17.41691856	     27.15522840	     41.67408356	     90.00000001	      0.00000000	      0.00000000	    -11.76545753	    -11.44704463	      5.12921684	     38.85567130	     90.00000001	      0.00000000	      0.00000000
      0.56000000	      6.35452524	      5.21263315	     -4.11365833	     -1.56808343	      0.97925966	      0.32674181	    -12.47768191	    -10.09842625	    -34.88801919	     34.12797762	    -10.63679004	      0.59564558	     12.01456930	     27.04935898	     -9.28979115	     13.66715047	      5.15213679	    -22.23943454	     11.18786318	     -5.41439006	      0.19526505	     -5.62982593	     21.61063175	     -9.28979115	    -21.22418833	    -10.54238342	      5.53883985	     21.94576906	    -17.33294720	     26.99285638	     41.57466327	     90.00000001	      0.00000000	      0.00000000	    -11.13150209	    -11.68669009	      5.22792478	     38.70134151	     90.00000001	      0.00000000	      0.00000000
      0.57000000	      6.30309434	      5.33999268	     -3.91850844	     -1.55952270	      0.98090244	      0.32445874	    -11.98428227	    -10.68332090	    -34.28370039	     35.93245740	    -10.55785032	      0.62713969	      9.84730749	     24.55133457	     -9.20665316	     13.09448058	      5.55468903	    -22.02463135	     11.00676878	     -5.41097122	      0.19210436	     -5.26807706	     21.75413217	     -9.20665316	    -21.28278048	    -10.66582588	      5.19116549	     21.14216250	    -17.20063181	     26.55767473	     41.44194636	     90.00000001	      0.00000000	      0.00000000	    -10.47089648	    -11.96402609	      5.52792273	     38.53799884	     90.00000001	      0.00000000	      0.00000000
      0.58000000	      6.30462052	      5.41092618	     -3.71356320	     -1.55095971	      0.98252812	      0.32227033	    -11.41320146	    -11.26982856	    -34.20003741	     37.82542401	    -10.75915862	      0.66017819	      7.38940250	     23.05799228	     -9.17302299	     12.47224368	      5.86609962	    -21.81720204	     10.89764746	     -5.37922197	      0.19019983	     -4.64335373	     21.95451648	     -9.17302299	    -21.39649626	    -10.72927088	      4.82440912	     20.36480006	    -17.11940166	     26.44287645	     41.30879400	     90.00000001	      0.00000000	      0.00000000	     -9.78376365	    -12.21609758	      5.62804837	     38.35276022	     90.00000001	      0.00000000	      0.00000000
      0.59000000	      6.27065139	      5.44338708	     -3.48496687	     -1.54275276	      0.98414326	      0.31997947	    -10.68433794	    -11.74684474	    -33.18887414	     40.02058031	    -10.48192063	      0.69849090	      5.11960531	     19.36004998	     -9.09235329	     11.90176602	      6.15602562	    -21.58763839	     10.74761528	     -5.38660260	      0.18758127	     -4.28954760	     22.17033132	     -9.09235329	    -21.53077237	    -10.72601719	      4.48737677	     19.57069531	    -16.99667489	     26.00898413	     41.13735780	     90.00000001	      0.00000000	      0.00000000	     -8.99205912	    -12.51333190	      6.01027908	     38.18993995	     90.00000001	      0.00000000	      0.00000000
      0.60000000	      6.33096945	      5.45801507	     -3.27307710	     -1.53453274	      0.98574629	      0.31778355	     -9.91570850	    -12.27301582	    -32.89666734	     42.22652774	    -10.65045326	      0.73699194	      2.66634112	     17.22188710	     -9.04980615	     11.21002515	      6.41109841	    -21.41893447	     10.59190857	     -5.36894550	      0.18486368	     -3.68468765	     22.47387120	     -9.04980615	    -21.76380173	    -10.70767018	      4.13794454	     18.82209987	    -16.92714737	     25.89015566	     40.96508429	     90.00000001	      0.00000000	      0.00000000	     -8.17681669	    -12.76658923	      6.18052572	     38.01313880	     90.00000001	      0.00000000	      0.00000000
      0.61000000	      6.37802128	      5.37499073	     -3.13031218	     -1.52666302	      0.98732880	      0.31581084	     -9.00451401	    -12.57901694	    -31.51672236	     44.65103258	    -10.26056375	      0.77930753	      0.36903202	     12.88859528	     -8.96342455	     10.55063840	      6.48838455	    -21.40683610	     10.45472448	     -5.29302374	      0.18246936	     -3.19552874	     22.86410744	     -8.96342455	    -22.01814656	    -10.60579671	      3.88553224	     18.10337312	    -16.81991450	     25.58266537	     40.73495159	     90.00000001	      0.00000000	      0.00000000	     -7.28212053	    -13.07654926	      6.59617736	     37.84098238	     90.00000001	      0.00000000	      0.00000000
      0.62000000	      6.52619327	      5.38237784	     -2.96967354	     -1.51870571	      0.98880366	      0.31380851	     -8.06987823	    -13.10504717	    -31.43858764	     47.00900309	    -10.66539626	      0.82046188	     -1.79131073	     11.18149129	     -8.93455109	      9.71865595	      6.71594571	    -21.32758688	     10.18712762	     -5.25510728	      0.17779892	     -2.56988449	     23.30022312	     -8.93455109	    -22.36699211	    -10.58316259	      3.54825904	     17.42889744	    -16.73958756	     25.56083390	     40.50315410	     90.00000001	      0.00000000	      0.00000000	     -6.37444159	    -13.35590379	      6.74924884	     37.64447609	     90.00000001	      0.00000000	      0.00000000
      0.63000000	      6.50581257	      5.33047689	     -2.80536958	     -1.51121245	      0.98999570	      0.31178368	     -6.84476947	    -13.44957810	    -29.77051190	     49.68890799	     -9.98990770	      0.86723505	     -3.89174504	      6.45061710	     -8.86552116	      9.21192570	      6.82740174	    -21.49726857	     10.11773396	     -5.27194045	      0.17658777	     -2.27696837	     23.95898039	     -8.86552116	    -22.56470575	    -10.48572478	      3.27754541	     16.71694569	    -16.62937950	     25.29478042	     40.25128527	     90.00000001	      0.00000000	      0.00000000	     -5.40885257	    -13.70237449	      7.32017640	     37.51409451	     90.00000001	      0.00000000	      0.00000000
      0.64000000	      6.63862711	      5.24679982	     -2.73503975	     -1.50381097	      0.99127197	      0.31006005	     -5.66945163	    -13.73140244	    -28.58856055	     52.21779837	     -9.75123462	      0.91137251	     -5.78606391	      3.02660874	     -8.79519026	      8.46598925	      6.86127847	    -21.75622366	      9.93478609	     -5.19536924	      0.17339473	     -1.73923495	     24.67071935	     -8.79519026	    -22.93365798	    -10.38270869	      3.05792925	     16.10815646	    -16.54192756	     25.20459018	     39.94868427	     90.00000001	      0.00000000	      0.00000000	     -4.37238231	    -14.01196100	      7.71548113	     37.34451906	     90.00000001	      0.00000000	      0.00000000
      0.65000000	      6.74032668	      5.20754096	     -2.65307196	     -1.49658130	      0.99235324	      0.30834974	     -4.37440870	    -14.04717682	    -27.46938916	     54.72956167	     -9.51316520	      0.95521105	     -7.38615216	      0.01534684	     -8.72475865	      7.78161622	      6.94934372	    -22.03896214	      9.76022437	     -5.15315879	      0.17034805	     -1.26795781	     25.40637654	     -8.72475865	    -23.27490057	    -10.31948936	      2.80419492	     15.51376650	    -16.43650519	     25.13070259	     39.62833160	     90.00000001	      0.00000000	      0.00000000	     -3.30384886	    -14.35101097	      8.16277843	     37.17187522	     90.00000001	      0.00000000	      0.00000000
